#!OML:ASF X:\für Bonn\!DataBase\2005_08_10_Bjorn_Final\c3d\bjorn.ASF
:FULLY-SPECIFIED
:DEGREES
310
root 1.03582 2.90926 18.2568 -428.901 -166.722 -719.679
lowerback 52.4459 4.81134 9.68658
upperback 26.8777 -4.97341 3.61991
thorax 10.2294 -8.75048 -0.269435
lowerneck -0.636725 4.87129 -3.0123
upperneck 9.06942 6.76186 -16.1719
head 3.26287 2.15444 -4.24359
rclavicle 1.47101e-014 3.75703e-014
rhumerus -233.582 -192.809 80.8696
rradius 52.7163
rwrist -68.5102
rhand -25.878 -22.9081
rfingers 7.12502
rthumb 0.663567 -52.8868
lclavicle 1.47101e-014 3.75703e-014
lhumerus -54.852 -15.5938 98.0518
lradius 45.7524
lwrist 50.9344
lhand -28.9615 -340.467
lfingers 7.12502
lthumb -2.31453 49.5003
rfemur -79.6434 -54.6333 -0.449978
rtibia 131.991
rfoot 26.5254 27.3647
rtoes 17.7703
lfemur 101.112 164.322 165.721
ltibia 122.414
lfoot 19.6654 -1.26392
ltoes -7.24583
311
root 1.02406 2.85684 18.1989 -429.056 -166.708 -719.725
lowerback 52.1837 4.80799 9.66251
upperback 26.9901 -5.03527 3.66844
thorax 10.3998 -8.79646 -0.227208
lowerneck -0.535124 4.83235 -2.88941
upperneck 8.95474 6.68938 -16.1985
head 3.20996 2.13812 -4.27613
rclavicle -1.66979e-014 1.92821e-014
rhumerus -234.567 -192.947 80.7998
rradius 54.1265
rwrist -68.8625
rhand -26.4109 -23.108
rfingers 7.12502
rthumb 0.148847 -53.0877
lclavicle -1.66979e-014 1.92821e-014
lhumerus -55.6239 -16.0688 98.4919
lradius 46.5109
lwrist 51.4917
lhand -28.9567 -340.233
lfingers 7.12502
lthumb -2.30993 49.7342
rfemur -80.2736 -55.5349 -0.426403
rtibia 132.468
rfoot 26.6854 27.8555
rtoes 17.583
lfemur 100.917 164.413 165.492
ltibia 122.252
lfoot 19.8507 -0.991999
ltoes -7.24163
312
root 1.0136 2.80594 18.145 -429.226 -166.685 -719.736
lowerback 51.9527 4.78925 9.65335
upperback 27.0943 -5.11207 3.73188
thorax 10.5614 -8.85342 -0.16916
lowerneck -0.535289 4.79923 -2.79777
upperneck 8.89825 6.64208 -16.2123
head 3.19258 2.12406 -4.29671
rclavicle 3.50855e-014 -3.22031e-014
rhumerus -235.495 -193.111 80.7578
rradius 55.4571
rwrist -69.2491
rhand -26.882 -23.3309
rfingers 7.12502
rthumb -0.306128 -53.3105
lclavicle 3.50855e-014 -3.22031e-014
lhumerus -56.3875 -16.4934 98.9277
lradius 47.2812
lwrist 51.9073
lhand -28.8718 -340.002
lfingers 7.12502
lthumb -2.22788 49.9656
rfemur -80.8424 -56.4515 -0.410484
rtibia 132.902
rfoot 26.8784 28.2997
rtoes 17.5004
lfemur 100.756 164.546 165.236
ltibia 122.07
lfoot 19.9814 -0.749067
ltoes -7.54313
313
root 1.003 2.75421 18.0927 -429.381 -166.677 -719.72
lowerback 51.7423 4.76106 9.63753
upperback 27.1734 -5.1947 3.80823
thorax 10.6918 -8.91464 -0.0866649
lowerneck -0.587251 4.78041 -2.77107
upperneck 8.8661 6.62083 -16.1878
head 3.1903 2.1176 -4.29285
rclavicle -3.70733e-014 2.14687e-014
rhumerus -236.42 -193.267 80.7345
rradius 56.7623
rwrist -69.731
rhand -27.4615 -23.4865
rfingers 7.12502
rthumb -0.865779 -53.4644
lclavicle -3.70733e-014 2.14687e-014
lhumerus -57.1655 -16.8862 99.3885
lradius 48.0665
lwrist 52.35
lhand -28.8325 -339.756
lfingers 7.12502
lthumb -2.18995 50.2129
rfemur -81.4856 -57.3515 -0.311256
rtibia 133.335
rfoot 27.0598 28.7272
rtoes 17.4188
lfemur 100.56 164.688 164.979
ltibia 121.871
lfoot 20.1336 -0.506498
ltoes -7.68337
314
root 0.993193 2.70474 18.0428 -429.519 -166.669 -719.716
lowerback 51.5478 4.74353 9.59498
upperback 27.2309 -5.2642 3.89197
thorax 10.7933 -8.97107 0.0178918
lowerneck -0.698604 4.77213 -2.81693
upperneck 8.92871 6.62789 -16.1053
head 3.22485 2.11401 -4.25724
rclavicle -1.95803e-014 2.5842e-014
rhumerus -237.371 -193.352 80.7656
rradius 58.075
rwrist -70.1072
rhand -27.9886 -23.6692
rfingers 7.12502
rthumb -1.37486 -53.6446
lclavicle -1.95803e-014 2.5842e-014
lhumerus -57.9303 -17.2094 99.8562
lradius 48.8239
lwrist 52.6861
lhand -28.7939 -339.532
lfingers 7.12502
lthumb -2.15269 50.4369
rfemur -82.1708 -58.2459 -0.149461
rtibia 133.748
rfoot 27.1998 29.1523
rtoes 17.2151
lfemur 100.372 164.818 164.699
ltibia 121.655
lfoot 20.2485 -0.302074
ltoes -7.82382
315
root 0.98409 2.65575 17.9949 -429.656 -166.667 -719.708
lowerback 51.3724 4.73039 9.56881
upperback 27.2898 -5.32591 3.98275
thorax 10.897 -9.02502 0.120664
lowerneck -0.862206 4.75069 -2.90889
upperneck 9.02195 6.62573 -15.9652
head 3.27381 2.10319 -4.19554
rclavicle 1.25234e-014 5.1684e-015
rhumerus -238.266 -193.365 80.8165
rradius 59.3349
rwrist -70.4057
rhand -28.4861 -23.8814
rfingers 7.12502
rthumb -1.85537 -53.8531
lclavicle 1.25234e-014 5.1684e-015
lhumerus -58.6507 -17.492 100.293
lradius 49.5512
lwrist 52.9598
lhand -28.6934 -339.352
lfingers 7.12502
lthumb -2.05562 50.6175
rfemur -82.8826 -59.0995 0.0458014
rtibia 134.153
rfoot 27.3524 29.5404
rtoes 17.0705
lfemur 100.2 164.938 164.408
ltibia 121.416
lfoot 20.3858 -0.189361
ltoes -8.04009
316
root 0.974398 2.6071 17.9482 -429.772 -166.696 -719.692
lowerback 51.2007 4.72118 9.54069
upperback 27.3366 -5.38258 4.09162
thorax 10.9878 -9.07943 0.244782
lowerneck -0.997985 4.72435 -3.02348
upperneck 9.11199 6.6114 -15.8509
head 3.31641 2.08404 -4.13943
rclavicle 1.37161e-014 -2.78299e-014
rhumerus -239.16 -193.351 80.9103
rradius 60.5688
rwrist -70.5719
rhand -28.9343 -24.0406
rfingers 7.12502
rthumb -2.28828 -54.0081
lclavicle 1.37161e-014 -2.78299e-014
lhumerus -59.3633 -17.7032 100.731
lradius 50.3006
lwrist 53.1575
lhand -28.6152 -339.094
lfingers 7.12502
lthumb -1.98005 50.8768
rfemur -83.6369 -59.8376 0.323201
rtibia 134.539
rfoot 27.5282 29.8278
rtoes 16.9541
lfemur 100.013 165.03 164.125
ltibia 121.156
lfoot 20.5252 -0.125827
ltoes -8.24333
317
root 0.965328 2.5609 17.9045 -429.875 -166.719 -719.663
lowerback 51.0389 4.72847 9.49038
upperback 27.374 -5.42682 4.23046
thorax 11.0682 -9.1352 0.410524
lowerneck -1.21551 4.6975 -3.16991
upperneck 9.26584 6.61191 -15.719
head 3.39197 2.06289 -4.07076
rclavicle -1.74931e-014 1.43125e-014
rhumerus -240.035 -193.326 81.0206
rradius 61.7748
rwrist -70.6632
rhand -29.3953 -24.2285
rfingers 7.12502
rthumb -2.73345 -54.1908
lclavicle -1.74931e-014 1.43125e-014
lhumerus -60.0505 -17.8529 101.183
lradius 51.0562
lwrist 53.2602
lhand -28.5396 -338.869
lfingers 7.12502
lthumb -1.9071 51.1018
rfemur -84.4246 -60.5325 0.640507
rtibia 134.91
rfoot 27.6416 30.1165
rtoes 16.6186
lfemur 99.8471 165.159 163.826
ltibia 120.853
lfoot 20.635 -0.0832173
ltoes -8.64535
318
root 0.956254 2.51602 17.8623 -429.956 -166.734 -719.625
lowerback 50.8729 4.74431 9.40338
upperback 27.3953 -5.46697 4.38486
thorax 11.1289 -9.19284 0.612353
lowerneck -1.35971 4.68204 -3.34681
upperneck 9.41505 6.61754 -15.5816
head 3.45288 2.04568 -3.99694
rclavicle -3.63776e-014 -2.22639e-014
rhumerus -240.903 -193.29 81.1749
rradius 62.9668
rwrist -70.6995
rhand -29.8235 -24.413
rfingers 7.12502
rthumb -3.14699 -54.3695
lclavicle -3.63776e-014 -2.22639e-014
lhumerus -60.7226 -17.9186 101.63
lradius 51.8032
lwrist 53.3021
lhand -28.4879 -338.649
lfingers 7.12502
lthumb -1.85717 51.3222
rfemur -85.2444 -61.2142 0.9925
rtibia 135.266
rfoot 27.7867 30.3479
rtoes 16.4238
lfemur 99.6781 165.3 163.508
ltibia 120.514
lfoot 20.7401 -0.0240428
ltoes -9.02726
319
root 0.947727 2.4729 17.8219 -430.029 -166.755 -719.575
lowerback 50.691 4.74476 9.33693
upperback 27.4209 -5.51267 4.50886
thorax 11.1951 -9.24261 0.772008
lowerneck -1.37632 4.66026 -3.45261
upperneck 9.5043 6.59424 -15.4875
head 3.47514 2.02514 -3.95163
rclavicle -1.76918e-014 -6.36111e-015
rhumerus -241.758 -193.246 81.2601
rradius 64.1334
rwrist -70.7314
rhand -30.2677 -24.5827
rfingers 7.12502
rthumb -3.57593 -54.5325
lclavicle -1.76918e-014 -6.36111e-015
lhumerus -61.3981 -17.9452 102.005
lradius 52.5631
lwrist 53.3055
lhand -28.4053 -338.458
lfingers 7.12502
lthumb -1.77737 51.5146
rfemur -86.0861 -61.8985 1.38297
rtibia 135.615
rfoot 27.8714 30.598
rtoes 16.0254
lfemur 99.54 165.448 163.199
ltibia 120.136
lfoot 20.8342 0.107307
ltoes -8.94136
